<svg xmlns="http://www.w3.org/2000/svg" width="36" height="36" viewBox="0 0 36 36" fill="none"><mask id="b" style="mask-type:alpha" maskUnits="userSpaceOnUse" x="0" y="0" width="36" height="36"><rect width="36" height="36" rx="18" fill="url(#a)"/></mask><g mask="url(#b)"><path opacity=".5" fill-rule="evenodd" clip-rule="evenodd" d="M16.216-2.989c-3.072.317-5.582 1.014-8.1 2.25C6.366.12 4.5 1.369 3.256 2.517c-.646.595-.785.826-.754 1.246.041.56.498.957 1.044.906.326-.031.629-.22 1.433-.898a20.1 20.1 0 0 1 9.45-4.443c1.362-.245 2.398-.32 3.988-.286 1.806.039 2.6.137 4.483.556 1.049.234 1.395.231 1.655-.01.249-.232.4-.55.4-.845.003-.52-.516-.888-1.645-1.169-1.606-.398-2.955-.548-5.14-.569-.954-.009-1.833-.006-1.954.006M29.031.601c-.302.2-.465.463-.465.75 0 .443.19.671 1.16 1.392 1.623 1.207 3.038 2.573 4.155 4.013 1.614 2.08 2.845 4.61 3.46 7.111.707 2.876.747 5.974.113 8.89-.077.355-.14.762-.14.903-.001.228.026.286.23.503.292.31.492.411.814.411.271 0 .517-.097.672-.265.565-.611 1.042-3.856.96-6.536-.126-4.166-1.547-8.312-4.019-11.72-1.2-1.654-3.181-3.636-4.902-4.901-1.053-.775-1.515-.9-2.038-.551m-15.362.982c-1.79.46-3.387 1.116-4.88 2.005-3.73 2.221-6.342 5.45-7.726 9.551-.46 1.363-.778 2.927-.792 3.883-.007.54 0 .58.147.799.157.233.594.49.835.49.233 0 .541-.122.72-.286.221-.202.3-.466.459-1.55.617-4.205 2.77-7.79 6.172-10.286 1.787-1.31 3.566-2.108 6.127-2.748.151-.038.429-.136.617-.218.443-.193.565-.377.566-.847 0-.401-.088-.594-.367-.803-.18-.134-.253-.152-.674-.165-.393-.011-.595.018-1.204.175m7.04-.097c-.351.17-.597.646-.528 1.024.058.323.247.61.479.725.114.057.622.21 1.128.341 2.003.517 3.31 1.08 4.88 2.103 2.575 1.677 4.564 4.011 5.835 6.846.43.961.623 1.213 1.007 1.314.464.122.911-.056 1.15-.458.272-.456.04-1.258-.847-2.935a17.2 17.2 0 0 0-3.183-4.23c-2.177-2.132-4.9-3.705-7.775-4.493-1.175-.321-1.822-.393-2.145-.237Zm-3.888 3.715c-2.654.286-4.946 1.157-6.984 2.655-1.083.796-2.663 2.427-2.952 3.048-.12.258-.133.677-.026.879.241.453.842.67 1.318.475.1-.04.34-.253.535-.471C9.82 10.54 11.03 9.456 11.849 8.97c.994-.588 2.44-1.187 3.556-1.471l.591-.151h2.008c1.932 0 2.028.005 2.53.128 2.008.493 3.592 1.312 5.304 2.743.72.603.857.678 1.217.675.734-.006 1.212-.694.935-1.343-.11-.255-.7-.85-1.377-1.384-1.887-1.491-4.003-2.405-6.573-2.84-.52-.088-.971-.12-1.843-.134a23 23 0 0 0-1.376.007ZM.526 5.814c-.273.06-.441.192-.72.569-.65.875-1.762 2.92-2.24 4.117C-3.447 13.035-4 15.786-4 18.275c0 2.055.29 4.498.608 5.106.37.712 1.229.778 1.732.132.207-.265.226-.563.088-1.349-.527-3.002-.426-5.704.324-8.647.406-1.591 1.31-3.642 2.34-5.306.49-.79.684-1.199.684-1.438 0-.629-.61-1.097-1.25-.959M18.774 9.49c-.519.346-.689.896-.43 1.385.161.304.391.418 1.3.65.74.187 1.132.33 1.768.645 1.806.895 3.204 2.665 3.75 4.75.111.422.12.612.144 3.116.028 2.993-.044 5.447-.205 6.977-.142 1.345-.14 1.562.013 1.858.23.441.829.61 1.347.38.408-.182.542-.544.698-1.888.355-3.063.404-9.023.087-10.626-.21-1.061-.768-2.418-1.337-3.247-.58-.845-1.726-1.994-2.6-2.607-.87-.61-2.437-1.247-3.52-1.432-.642-.11-.8-.104-1.015.04Zm-4.208.414c-1.24.434-2.758 1.506-3.675 2.595-.611.726-.926 1.204-1.379 2.096-.808 1.592-.845 1.83-.916 6.007-.028 1.689-.08 3.475-.113 3.97-.067.983-.043 1.158.206 1.485.47.615 1.522.425 1.724-.312.182-.662.283-2.524.298-5.493.01-2.16.029-2.693.103-3.071.438-2.222 1.85-4.043 3.953-5.092.914-.457 1.195-.645 1.288-.861.284-.666-.222-1.434-.939-1.424a2 2 0 0 0-.55.1m2.585 3.563c-1.366.182-2.734 1.064-3.537 2.28-.503.76-.74 1.472-.813 2.435-.057.766.005 1.173.215 1.408.345.385.859.491 1.303.271.35-.174.423-.337.523-1.174.147-1.23.335-1.697.925-2.3.365-.374.715-.614 1.084-.744.354-.125 1.152-.188 1.658-.131 1.17.13 2.33 1.2 2.518 2.322.085.511.168 2.129.168 3.306 0 1.346.083 1.596.616 1.864.29.146.621.13.952-.047.465-.248.491-.345.513-1.87.02-1.45-.063-3.158-.18-3.698-.386-1.777-1.942-3.365-3.744-3.819-.516-.13-1.616-.181-2.2-.103Zm-11.676.649c-.43.208-.577.514-.845 1.763l-.17.79-.045 3.34c-.051 3.794-.118 4.857-.414 6.542-.33 1.879-.629 2.66-1.346 3.53-.518.629-.66.843-.714 1.08-.07.302.032.56.332.845.554.526.98.446 1.752-.33.728-.733 1.12-1.39 1.48-2.481.735-2.22.878-3.5 1.001-8.943.07-3.037.118-3.755.303-4.469.076-.294.138-.67.138-.836 0-.278-.017-.319-.23-.546-.128-.135-.3-.28-.383-.322-.218-.11-.588-.095-.86.037Zm24.286.147c-.188.073-.535.455-.597.659-.053.171-.04.347.083 1.057.263 1.539.28 1.85.28 5.135.001 2.5-.018 3.331-.097 4.31a62 62 0 0 1-.589 4.978c-.256 1.565-.27 1.856-.094 2.158.437.756 1.517.605 1.846-.258.283-.743.815-4.668.95-7.013.094-1.622.097-7.488.005-8.216-.181-1.433-.414-2.277-.706-2.563-.255-.25-.77-.367-1.08-.247Zm4.71 1.623c-.298.069-.537.239-.65.461-.107.208-.11.308-.093 3.42.028 5.302-.222 8.56-.952 12.415-.102.535-.174.983-.161.996.068.067 1.423-1.414 2.162-2.363l.488-.627.142-1.237c.355-3.096.421-4.395.417-8.188-.004-3.441-.032-3.946-.24-4.321a1.4 1.4 0 0 0-.303-.381c-.129-.094-.524-.237-.609-.221zm-16.824 1.692c-.441.204-.529.332-.581.852-.025.246-.072 1.672-.105 3.168-.065 2.94-.113 3.838-.28 5.253-.534 4.504-1.813 8.026-3.812 10.496-.53.655-.633.821-.554.895s1.44.389 1.815.42l.333.028.244-.273c.71-.796 1.949-3.112 2.553-4.775.865-2.383 1.383-4.945 1.651-8.165.14-1.684.221-4.885.155-6.119-.074-1.37-.117-1.491-.624-1.739-.413-.202-.443-.203-.795-.04ZM.67 20.75c-.396.297-.417.38-.485 1.899-.107 2.426-.396 4.16-.809 4.86l-.134.228.324.558c.39.673.695 1.146.769 1.19.073.044.546-.47.868-.945.565-.832.933-2.75 1.063-5.54.057-1.236.015-1.826-.145-2.041-.162-.219-.543-.38-.906-.382-.269-.002-.343.022-.545.173m12.534 3.525c-.41.224-.53.582-.702 2.091a26 26 0 0 1-.826 4.18c-.584 1.993-1.292 3.35-2.417 4.629-.52.591-.913 1.09-1.024 1.3-.075.142-.071.149.156.279.283.162 1.3.613 1.486.659.115.028.193-.031.556-.421 1.299-1.398 2.006-2.5 2.675-4.168.791-1.974 1.469-5.074 1.578-7.217.037-.745.017-.864-.183-1.098a1.02 1.02 0 0 0-1.299-.234m8.386.994a1.04 1.04 0 0 0-.556.666c-.034.119-.124.713-.2 1.32-.56 4.458-1.7 8.07-3.466 10.974-.226.37-.41.696-.41.722 0 .028.526.049 1.21.049h1.21l.468-.916c1.558-3.047 2.51-6.256 3.027-10.197.175-1.34.174-2.044-.004-2.285-.14-.188-.647-.448-.874-.448a1.2 1.2 0 0 0-.405.115M7.73 30.44c-.23.065-.549.385-.751.755a8.3 8.3 0 0 1-1.085 1.528c-.257.296-.65.779-.872 1.073l-.404.534.189.154c.173.142 1.318.95 1.46 1.03.036.02.164-.116.31-.33.135-.201.5-.655.81-1.01 1.02-1.168 1.65-2.232 1.65-2.793a.92.92 0 0 0-.568-.872c-.301-.137-.45-.151-.74-.07Zm16.676 2.958c-.214.064-.49.364-.636.693-.06.136-.277.709-.482 1.272a55 55 0 0 1-.792 2.032c-.23.554-.42 1.06-.42 1.124 0 .106.02.112.254.078.345-.05 1.822-.45 2.003-.542.173-.087.407-.565.816-1.67.584-1.57.69-2.139.467-2.512-.218-.364-.807-.595-1.21-.475m3.883 1.686c-.404.13-.558.317-.79.959-.265.735-.277.801-.146.801.214 0 1.82-.919 2.06-1.177.085-.093.084-.109-.03-.25-.13-.161-.61-.406-.788-.4-.06.002-.198.032-.306.067" fill="url(#c)"/></g><defs><linearGradient id="a" x1="6" y1="-10.5" x2="27" y2="48" gradientUnits="userSpaceOnUse"><stop stop-color="#FF767E"/><stop offset="1" stop-color="#7976FF"/></linearGradient><linearGradient id="c" x1="18" y1="-3" x2="18" y2="39" gradientUnits="userSpaceOnUse"><stop stop-color="#fff" stop-opacity=".92"/><stop offset="1" stop-color="#fff" stop-opacity=".55"/></linearGradient></defs></svg>