<svg width="97" height="96" viewBox="0 0 97 96" fill="none" xmlns="http://www.w3.org/2000/svg"><path d="M42.013 3.464a12 12 0 0 1 12 0l29.569 17.072a12 12 0 0 1 6 10.392v34.144a12 12 0 0 1-6 10.392l-29.57 17.072a12 12 0 0 1-12 0L12.444 75.464a12 12 0 0 1-6-10.392V30.928a12 12 0 0 1 6-10.392l29.57-17.072Z" fill="#B85143"/><g opacity=".6"><mask id="b" style="mask-type:alpha" maskUnits="userSpaceOnUse" x="6" y="23" width="81" height="52"><rect x="6.435" y="23" width="80" height="52" rx="10" fill="url(#a)"/></mask><g mask="url(#b)" fill-rule="evenodd" clip-rule="evenodd" fill="#F3F4F6"><path opacity=".3" d="M63.323 74.21c-.175.088-.11.446.086.446a8.259 8.259 0 0 0 8.259-8.26V31.66a8.259 8.259 0 0 0-8.26-8.26c-.195 0-.26.359-.085.448a6.194 6.194 0 0 1 3.381 5.52v39.32a6.194 6.194 0 0 1-3.381 5.521Z"/><path opacity=".7" d="M56.032 73.427c-.35.24-.146 1.229.279 1.229a8.259 8.259 0 0 0 8.259-8.26V31.66a8.259 8.259 0 0 0-8.26-8.26c-.424 0-.628.989-.278 1.23a8.25 8.25 0 0 1 3.574 6.803v35.191a8.25 8.25 0 0 1-3.574 6.803Z"/><path d="M-5.759 23.174a8.333 8.333 0 0 0-8.333 8.333V66.55a8.333 8.333 0 0 0 8.333 8.333h54.434a8.333 8.333 0 0 0 8.333-8.333V31.507a8.333 8.333 0 0 0-8.333-8.333H-5.76Zm49.84 32.318a6.464 6.464 0 1 0 0-12.927 6.464 6.464 0 0 0 0 12.927Z"/></g></g><defs><linearGradient id="a" x1="6.435" y1="5.938" x2="61.627" y2="156.891" gradientUnits="userSpaceOnUse"><stop stop-color="#CC703C"/><stop offset="1" stop-color="#CC3C9B"/></linearGradient></defs></svg>