<svg width="96" height="96" viewBox="0 0 96 96" fill="none" xmlns="http://www.w3.org/2000/svg"><rect width="96" height="96" rx="48" fill="#B85143"/><g opacity=".6"><mask id="b" style="mask-type:alpha" maskUnits="userSpaceOnUse" x="0" y="0" width="96" height="96"><rect width="96" height="96" rx="48" fill="url(#a)"/></mask><g mask="url(#b)" fill-rule="evenodd" clip-rule="evenodd" fill="#F3F4F6"><path opacity=".3" d="M57.56 79.987h1.475c5.474 0 9.911-4.437 9.911-9.911V28.392c0-5.474-4.437-9.911-9.91-9.911h-1.478a7.436 7.436 0 0 1 5.432 7.16v47.186a7.436 7.436 0 0 1-5.43 7.16Z"/><path opacity=".7" d="M46.881 79.987h3.637c5.473 0 9.91-4.437 9.91-9.911V28.392c0-5.474-4.437-9.911-9.91-9.911h-3.64c4.357 1.043 7.594 4.963 7.594 9.638v42.23c0 4.675-3.236 8.594-7.59 9.638Z"/><path d="M-23.966 18.209c-5.523 0-10 4.477-10 10V70.26c0 5.523 4.477 10 10 10h65.32c5.524 0 10-4.477 10-10V28.21c0-5.523-4.476-10-10-10h-65.32ZM35.842 56.99a7.756 7.756 0 1 0 0-15.513 7.756 7.756 0 0 0 0 15.513Z"/></g></g><defs><linearGradient id="a" x1="0" y1="-31.5" x2="135" y2="208.5" gradientUnits="userSpaceOnUse"><stop stop-color="#CC703C"/><stop offset="1" stop-color="#CC3C9B"/></linearGradient></defs></svg>