<svg width="96" height="96" viewBox="0 0 96 96" fill="none" xmlns="http://www.w3.org/2000/svg"><g opacity=".6"><mask id="b" style="mask-type:alpha" maskUnits="userSpaceOnUse" x="0" y="0" width="96" height="96"><rect width="96" height="96" rx="12" fill="url(#a)"/></mask><g mask="url(#b)" fill-rule="evenodd" clip-rule="evenodd" fill="#F3F4F6"><path opacity=".3" d="M58.932 79.45c-.21.108-.132.537.103.537 5.474 0 9.911-4.437 9.911-9.911V28.392c0-5.474-4.437-9.911-9.91-9.911-.236 0-.313.43-.104.536a7.433 7.433 0 0 1 4.058 6.625v47.185c0 2.89-1.65 5.394-4.058 6.624Z"/><path opacity=".7" d="M50.183 78.512c-.42.29-.175 1.475.335 1.475 5.473 0 9.91-4.437 9.91-9.911V28.392c0-5.474-4.437-9.911-9.91-9.911-.51 0-.754 1.186-.335 1.475a9.9 9.9 0 0 1 4.29 8.163v42.23a9.9 9.9 0 0 1-4.29 8.163Z"/><path d="M-23.966 18.209c-5.523 0-10 4.477-10 10V70.26c0 5.523 4.477 10 10 10h65.32c5.524 0 10-4.477 10-10V28.21c0-5.523-4.476-10-10-10h-65.32ZM35.842 56.99a7.756 7.756 0 1 0 0-15.513 7.756 7.756 0 0 0 0 15.513Z"/></g></g><defs><linearGradient id="a" x1="0" y1="-31.5" x2="135" y2="208.5" gradientUnits="userSpaceOnUse"><stop stop-color="#CC703C"/><stop offset="1" stop-color="#CC3C9B"/></linearGradient></defs></svg>