<svg viewBox="0 0 856 200" fill="none" xmlns="http://www.w3.org/2000/svg"><g clip-path="url(#a)"><path d="M98.378 131.812v-29.79H70.332a21.15 21.15 0 0 1-6.138 13.183 21.15 21.15 0 0 1-15.005 6.215 21.16 21.16 0 0 1-15.005-6.215 21.15 21.15 0 0 1-6.138-13.183H0v87.858c0 5.81 4.71 10.52 10.52 10.52h87.858v-29.791c0-1.006.816-1.822 1.822-1.822 4.854 0 9.248-1.967 12.429-5.148a17.52 17.52 0 0 0 5.148-12.428c0-4.854-1.968-9.248-5.148-12.429a17.53 17.53 0 0 0-12.429-5.148 1.82 1.82 0 0 1-1.822-1.822" fill="#00D8D5"/><path d="m79 50.104-.013-.35v-.026l-.005-.248v-.043l-.002-.248c0-5.86 2.375-11.165 6.215-15.005a21.15 21.15 0 0 1 13.183-6.138V0H10.52C4.71 0 0 4.71 0 10.52v87.858h29.79c1.007 0 1.822.816 1.822 1.822 0 4.854 1.968 9.248 5.148 12.429a17.52 17.52 0 0 0 12.43 5.148c4.853 0 9.247-1.968 12.428-5.148a17.52 17.52 0 0 0 5.148-12.429c0-1.006.816-1.822 1.822-1.822h29.79V70.332a21.15 21.15 0 0 1-13.183-6.138 21.15 21.15 0 0 1-6.121-13l-.003-.025-.014-.157-.013-.164-.009-.12-.006-.092-.008-.117-.01-.165z" fill="#FF4C8B"/><path d="M102.022 0v29.79a1.82 1.82 0 0 1-1.822 1.822 17.52 17.52 0 0 0-12.429 5.148 17.52 17.52 0 0 0-5.146 12.64v.027l.004.208v.023q.007.214.017.427v.016a17.52 17.52 0 0 0 5.125 11.517 17.52 17.52 0 0 0 12.429 5.148c1.006 0 1.822.816 1.822 1.822v29.79h28.046a21.16 21.16 0 0 1 6.138-13.183 21.15 21.15 0 0 1 15.005-6.215c5.86 0 11.165 2.375 15.005 6.215a21.16 21.16 0 0 1 6.138 13.183H200.4V10.52C200.4 4.71 195.69 0 189.88 0z" fill="#00D8D5"/><path d="M200.401 102.022H170.61a1.82 1.82 0 0 1-1.822-1.822 17.52 17.52 0 0 0-5.148-12.429 17.52 17.52 0 0 0-12.429-5.148 17.52 17.52 0 0 0-12.428 5.148 17.52 17.52 0 0 0-5.148 12.429 1.82 1.82 0 0 1-1.822 1.822h-29.791v28.046c5.133.436 9.746 2.7 13.184 6.138a21.15 21.15 0 0 1 6.215 15.005 21.16 21.16 0 0 1-6.215 15.005 21.16 21.16 0 0 1-13.184 6.138V200.4h87.859c5.81 0 10.52-4.71 10.52-10.52z" fill="#FF4C8B"/></g><path d="M346.433 124.351h-12.004l-2.851-12.604q-7.503 8.553-15.005 11.854t-17.256 3.301q-12.004 0-21.607-4.352-9.453-4.501-16.055-12.154T251.451 92.54Q248 82.337 248 70.783q0-11.404 3.451-21.607 3.601-10.203 10.204-17.856 6.602-7.653 16.055-12.154 9.603-4.502 21.607-4.502 8.703 0 16.506 2.401 7.952 2.25 14.104 6.902 6.153 4.502 10.204 11.404t5.102 15.906h-18.307q-.75-5.253-3.301-9.154-2.4-4.05-6.152-6.752-3.751-2.7-8.403-4.051-4.651-1.35-9.753-1.35-8.553 0-14.855 3.45-6.151 3.451-10.053 9.304-3.902 5.701-5.852 13.054a62.8 62.8 0 0 0-1.801 15.005q0 7.653 1.801 15.005 1.95 7.353 5.852 13.205 3.901 5.701 10.053 9.153 6.303 3.45 14.855 3.451 7.203.15 12.754-1.801 5.553-2.1 9.304-5.852 3.9-3.901 5.852-9.453 1.95-5.552 2.1-12.304h-28.509V67.932h45.615zm44.533 2.101q-9.303 0-16.655-3.001-7.203-3.152-12.304-8.553-4.952-5.402-7.653-12.904-2.551-7.503-2.551-16.506 0-8.853 2.551-16.356 2.7-7.502 7.653-12.904 5.101-5.401 12.304-8.403 7.352-3.15 16.655-3.15t16.506 3.15q7.352 3.002 12.304 8.403 5.102 5.402 7.652 12.904 2.701 7.503 2.701 16.356 0 9.003-2.701 16.506-2.55 7.502-7.652 12.904-4.952 5.401-12.304 8.553-7.203 3-16.506 3.001m0-13.505q5.703 0 9.904-2.401t6.902-6.302q2.7-3.9 3.901-8.703a38 38 0 0 0 1.351-10.053q0-4.952-1.351-9.903-1.2-4.952-3.901-8.703-2.702-3.902-6.902-6.302t-9.904-2.401q-5.701 0-9.903 2.4t-6.902 6.303q-2.701 3.75-4.052 8.703-1.2 4.95-1.2 9.903 0 5.101 1.2 10.053 1.351 4.802 4.052 8.703 2.7 3.902 6.902 6.302 4.201 2.401 9.903 2.401m44.831-95.732h17.106v107.136h-17.106zm99.815 107.136h-16.205v-10.503h-.3q-3.451 6.751-10.054 9.753-6.602 2.85-13.954 2.851-9.153 0-16.056-3.151-6.751-3.301-11.253-8.853t-6.753-13.055q-2.25-7.652-2.25-16.355 0-10.503 2.851-18.156t7.502-12.604q4.801-4.952 10.804-7.203 6.151-2.4 12.454-2.4 3.601 0 7.352.75 3.751.6 7.203 2.1 3.45 1.5 6.302 3.902 3 2.25 4.951 5.401h.301V17.215h17.105zm-59.72-37.963q0 4.951 1.201 9.754 1.35 4.801 3.901 8.552a20.5 20.5 0 0 0 6.752 6.002q4.051 2.251 9.604 2.251 5.702 0 9.753-2.401 4.201-2.4 6.752-6.302 2.701-3.9 3.901-8.703a38 38 0 0 0 1.351-10.053q0-12.904-5.852-20.107-5.702-7.202-15.605-7.202-6.003 0-10.204 2.55-4.051 2.402-6.752 6.453-2.551 3.9-3.751 9.003a49 49 0 0 0-1.051 10.203m71.774-69.173h51.167q17.706 0 26.559 7.653t8.853 21.307q0 7.653-2.251 12.754-2.251 4.952-5.252 8.103-3.001 3-6.002 4.351-2.851 1.35-4.201 1.8v.301q2.4.3 5.101 1.5 2.852 1.2 5.252 3.902 2.401 2.55 3.901 6.752 1.651 4.201 1.651 10.504 0 9.453 1.35 17.255 1.501 7.653 4.502 10.954h-20.107q-2.1-3.452-2.551-7.653-.3-4.2-.3-8.102 0-7.352-.9-12.605-.9-5.401-3.301-8.852-2.401-3.602-6.602-5.252-4.051-1.65-10.504-1.65h-27.609v44.114h-18.756zm18.756 48.767h30.76q9.003 0 13.655-4.202 4.651-4.35 4.651-12.904 0-5.102-1.5-8.253-1.501-3.3-4.202-5.102-2.55-1.8-6.002-2.4-3.3-.6-6.902-.6h-30.46zm143.613 58.369H693.23v-10.804h-.301q-3.15 5.853-9.453 9.454-6.152 3.45-12.604 3.451-15.305 0-22.207-7.503-6.753-7.652-6.753-22.957V46.775h17.106v47.566q0 10.203 3.901 14.405 3.901 4.201 10.954 4.201 5.401 0 9.003-1.65 3.602-1.651 5.852-4.352 2.251-2.85 3.151-6.752 1.05-3.9 1.05-8.403V46.775h17.106zm21.94-24.908q.75 7.502 5.702 10.503t11.854 3.001q2.401 0 5.402-.3 3.151-.45 5.852-1.5t4.351-3.001q1.801-2.101 1.651-5.402t-2.401-5.402q-2.25-2.1-5.852-3.301-3.451-1.35-7.952-2.25-4.501-.901-9.154-1.951a91 91 0 0 1-9.303-2.551q-4.351-1.5-7.952-4.052-3.452-2.55-5.552-6.452-2.101-4.05-2.101-9.903 0-6.303 3.001-10.504 3.151-4.351 7.803-6.902 4.801-2.7 10.503-3.751 5.853-1.05 11.104-1.05 6.002 0 11.404 1.35 5.552 1.2 9.903 4.051 4.502 2.85 7.353 7.503 3 4.5 3.751 10.953h-17.856q-1.2-6.152-5.702-8.252-4.351-2.1-10.053-2.101-1.801 0-4.352.3-2.4.3-4.651 1.2a8.8 8.8 0 0 0-3.602 2.401q-1.5 1.5-1.5 4.052 0 3.15 2.101 5.101 2.25 1.95 5.701 3.301 3.602 1.2 8.103 2.101 4.501.9 9.303 1.95 4.652 1.05 9.153 2.552 4.501 1.5 7.953 4.05a18.6 18.6 0 0 1 5.702 6.453q2.25 3.902 2.251 9.603 0 6.903-3.151 11.704t-8.253 7.803q-4.951 3-11.104 4.351t-12.154 1.351q-7.353 0-13.654-1.651-6.153-1.65-10.804-4.951a26.4 26.4 0 0 1-7.203-8.403q-2.55-5.102-2.7-12.004zm55.902-82.228h17.106V56.98h.3q3.152-5.253 9.303-8.703 6.303-3.602 13.955-3.602 12.754 0 20.107 6.603T856 71.083v53.268h-17.106V75.585q-.3-9.153-3.901-13.205-3.601-4.2-11.254-4.201-4.352 0-7.802 1.65-3.452 1.5-5.852 4.352-2.401 2.7-3.752 6.452-1.35 3.75-1.35 7.953v45.765h-17.106zM258.012 175.818h-6.551v-4.132h6.551q1.519 0 2.472-.494.954-.512 1.395-1.413.442-.9.442-2.03 0-1.149-.442-2.137a3.56 3.56 0 0 0-1.395-1.589q-.953-.601-2.472-.601h-4.715v21.561H248v-25.71h10.012q3.02 0 5.174 1.094 2.171 1.078 3.32 2.985 1.147 1.907 1.147 4.361 0 2.49-1.147 4.309-1.149 1.818-3.32 2.807-2.154.99-5.174.989m45.265-4.291v1.219q0 2.931-.795 5.262-.794 2.33-2.243 3.973a9.7 9.7 0 0 1-3.461 2.49q-1.995.864-4.432.865-2.418 0-4.432-.865a9.9 9.9 0 0 1-3.461-2.49q-1.465-1.642-2.278-3.973-.794-2.331-.794-5.262v-1.219q0-2.949.794-5.262.795-2.33 2.243-3.973a9.8 9.8 0 0 1 3.461-2.507q2.013-.865 4.432-.865 2.437 0 4.432.865a9.6 9.6 0 0 1 3.461 2.507q1.466 1.642 2.26 3.973.813 2.313.813 5.262m-5.351 1.219v-1.254q0-2.049-.371-3.602-.37-1.554-1.094-2.614t-1.766-1.589q-1.042-.547-2.384-.547t-2.384.547q-1.024.53-1.748 1.589-.707 1.06-1.077 2.614t-.371 3.602v1.254q0 2.03.371 3.602.37 1.554 1.095 2.631.724 1.06 1.765 1.607 1.043.547 2.384.547 1.343 0 2.384-.547 1.042-.548 1.748-1.607.706-1.077 1.077-2.631.372-1.571.371-3.602m26.212 8.158 5.121-21.631h2.86l.653 3.602-5.456 22.108h-3.072zm-2.631-21.631 4.238 21.631-.354 4.079h-3.425l-5.704-25.71zm15.768 21.542 4.185-21.542h5.245l-5.686 25.71h-3.426zm-3.549-21.542 5.156 21.719-.141 3.991h-3.073l-5.491-22.126.706-3.584zm43.958 21.578v4.132h-13.685v-4.132zm-11.955-21.578v25.71h-5.297v-25.71zm10.171 10.471v4.026h-11.901v-4.026zm1.766-10.471v4.149h-13.667v-4.149zm13.957 0h9.588q2.95 0 5.068.883 2.137.882 3.285 2.613 1.147 1.73 1.147 4.256 0 2.066-.706 3.549a6.64 6.64 0 0 1-1.96 2.454q-1.254.972-2.949 1.554l-1.677.883h-8.335l-.035-4.132h6.198q1.395 0 2.313-.494a3.24 3.24 0 0 0 1.377-1.378q.477-.882.477-2.048 0-1.236-.459-2.137a3.1 3.1 0 0 0-1.395-1.377q-.936-.477-2.349-.477h-4.291v21.561h-5.297zm14.374 25.71-5.863-11.46 5.598-.036 5.933 11.249v.247zm36.894-4.132v4.132h-13.685v-4.132zm-11.954-21.578v25.71h-5.298v-25.71zm10.171 10.471v4.026h-11.902v-4.026zm1.766-10.471v4.149h-13.668v-4.149zm21.85 25.71h-5.598l.035-4.132h5.563q2.083 0 3.514-.936 1.43-.954 2.154-2.772.741-1.82.741-4.397v-1.254q0-1.977-.423-3.479-.406-1.5-1.219-2.525a5.1 5.1 0 0 0-1.995-1.536q-1.183-.53-2.719-.53h-5.757v-4.149h5.757q2.578 0 4.714.883a10.6 10.6 0 0 1 3.726 2.489q1.572 1.625 2.419 3.885.865 2.243.865 4.997v1.219q0 2.736-.865 4.997-.847 2.26-2.419 3.885-1.554 1.607-3.726 2.489-2.154.866-4.767.866m-2.596-25.71v25.71h-5.298v-25.71zm58.992 14.426h-6.604l-.036-3.637h5.545q1.465 0 2.401-.371.936-.388 1.395-1.113.477-.74.477-1.801 0-1.2-.459-1.942-.441-.742-1.395-1.077-.936-.336-2.419-.336h-3.673v21.561h-5.297v-25.71h8.97q2.242 0 4.008.423 1.784.425 3.02 1.289a5.73 5.73 0 0 1 1.889 2.19q.654 1.307.654 3.108a6.1 6.1 0 0 1-.724 2.931q-.707 1.343-2.243 2.19-1.518.847-3.973.936zm-.23 11.284h-7.822l2.066-4.132h5.756q1.395 0 2.278-.442.883-.459 1.307-1.236t.424-1.783q0-1.13-.389-1.96a2.62 2.62 0 0 0-1.201-1.272q-.83-.459-2.189-.459h-5.103l.035-3.637h6.357l1.218 1.43q2.349-.036 3.779.83 1.448.848 2.101 2.207a6.5 6.5 0 0 1 .671 2.914q0 2.472-1.077 4.167-1.077 1.677-3.161 2.525-2.065.848-5.05.848m26.653-25.71 5.368 11.725 5.368-11.725h5.774l-8.458 16.351v9.359h-5.368v-9.359l-8.476-16.351zm64.466 17.181h5.28q-.159 2.596-1.431 4.609-1.253 2.013-3.514 3.143-2.243 1.13-5.403 1.13-2.472 0-4.432-.848a9.4 9.4 0 0 1-3.355-2.472q-1.377-1.606-2.101-3.885-.724-2.277-.724-5.103v-1.783q0-2.826.741-5.103.76-2.296 2.155-3.903a9.6 9.6 0 0 1 3.372-2.472q1.96-.865 4.379-.865 3.215 0 5.421 1.165 2.225 1.165 3.444 3.214 1.236 2.048 1.483 4.662h-5.297q-.089-1.554-.618-2.631a3.5 3.5 0 0 0-1.607-1.642q-1.06-.566-2.826-.566-1.324 0-2.313.495-.988.494-1.66 1.501-.67 1.006-1.006 2.543-.318 1.518-.318 3.566v1.819q0 1.996.3 3.514.3 1.501.918 2.543.636 1.024 1.625 1.554 1.006.512 2.419.512 1.66 0 2.737-.53a3.66 3.66 0 0 0 1.642-1.571q.583-1.042.689-2.596m40.726-4.927v1.219q0 2.931-.794 5.262-.795 2.33-2.243 3.973a9.7 9.7 0 0 1-3.461 2.49q-1.995.864-4.432.865-2.42 0-4.432-.865a9.9 9.9 0 0 1-3.461-2.49q-1.465-1.642-2.278-3.973-.795-2.331-.795-5.262v-1.219q0-2.949.795-5.262.794-2.33 2.243-3.973a9.8 9.8 0 0 1 3.461-2.507q2.013-.865 4.432-.865 2.437 0 4.432.865a9.6 9.6 0 0 1 3.461 2.507q1.465 1.642 2.26 3.973.813 2.313.812 5.262m-5.35 1.219v-1.254q0-2.049-.371-3.602-.37-1.554-1.095-2.614-.723-1.06-1.765-1.589-1.043-.547-2.384-.547-1.343 0-2.384.547-1.025.53-1.748 1.589-.707 1.06-1.077 2.614-.372 1.553-.371 3.602v1.254q0 2.03.371 3.602.37 1.554 1.094 2.631.725 1.06 1.766 1.607 1.042.547 2.384.547t2.384-.547q1.041-.548 1.748-1.607.707-1.077 1.077-2.631.37-1.571.371-3.602m28.896 6.869 6.056-20.342h5.898l-8.953 25.71h-3.884zm-5.58-20.342 6.039 20.342.918 5.368h-3.92l-8.9-25.71zm39.896 4.397-6.993 21.313h-5.632l9.553-25.71h3.584zm5.81 21.313-7.011-21.313-.565-4.397h3.62l9.606 25.71zm-.318-9.571v4.15H702.51v-4.15zm35.729 5.439v4.132h-12.943v-4.132zm-11.231-21.578v25.71h-5.297v-25.71zm42.369 21.578v4.132h-13.685v-4.132zm-11.954-21.578v25.71h-5.298v-25.71zm10.17 10.471v4.026h-11.901v-4.026zm1.766-10.471v4.149h-13.667v-4.149zm34.882 0v25.71h-5.297l-10.33-17.234v17.234h-5.298v-25.71h5.298l10.347 17.252v-17.252zm26.423 0v25.71h-5.279v-25.71zm7.911 0v4.149h-20.978v-4.149z" fill="#fff"/><defs><clipPath id="a"><path fill="#fff" d="M0 0h200v200H0z"/></clipPath></defs></svg>